<mxfile host="Electron" agent="Mozilla/5.0 (Windows NT 10.0; Win64; x64) AppleWebKit/537.36 (KHTML, like Gecko) draw.io/27.0.9 Chrome/134.0.6998.205 Electron/35.4.0 Safari/537.36" version="27.0.9">
  <diagram name="Page-1" id="vrlYyOKMZUnLN6hcUwrE">
    <mxGraphModel dx="1186" dy="516" grid="1" gridSize="10" guides="1" tooltips="1" connect="1" arrows="1" fold="1" page="0" pageScale="1" pageWidth="413" pageHeight="583" math="0" shadow="0">
      <root>
        <mxCell id="0" />
        <mxCell id="1" parent="0" />
        <mxCell id="G1LfzqULqKn8pjqGVw7g-43" value="" style="rounded=1;whiteSpace=wrap;html=1;fillColor=none;" parent="1" vertex="1">
          <mxGeometry x="-100" y="90" width="410" height="390" as="geometry" />
        </mxCell>
        <mxCell id="G1LfzqULqKn8pjqGVw7g-1" value="crm_cust_info" style="swimlane;fontStyle=0;childLayout=stackLayout;horizontal=1;startSize=26;fillColor=#dae8fc;horizontalStack=0;resizeParent=1;resizeParentMax=0;resizeLast=0;collapsible=1;marginBottom=0;html=1;rounded=1;swimlaneLine=1;glass=0;shadow=0;swimlaneFillColor=default;strokeColor=#6c8ebf;" parent="1" vertex="1">
          <mxGeometry x="140" y="178" width="140" height="78" as="geometry" />
        </mxCell>
        <mxCell id="G1LfzqULqKn8pjqGVw7g-2" value="cst_id" style="text;strokeColor=none;fillColor=none;align=left;verticalAlign=top;spacingLeft=4;spacingRight=4;overflow=hidden;rotatable=0;points=[[0,0.5],[1,0.5]];portConstraint=eastwest;whiteSpace=wrap;html=1;" parent="G1LfzqULqKn8pjqGVw7g-1" vertex="1">
          <mxGeometry y="26" width="140" height="26" as="geometry" />
        </mxCell>
        <mxCell id="G1LfzqULqKn8pjqGVw7g-21" value="cst_key" style="text;strokeColor=none;fillColor=none;align=left;verticalAlign=top;spacingLeft=4;spacingRight=4;overflow=hidden;rotatable=0;points=[[0,0.5],[1,0.5]];portConstraint=eastwest;whiteSpace=wrap;html=1;" parent="G1LfzqULqKn8pjqGVw7g-1" vertex="1">
          <mxGeometry y="52" width="140" height="26" as="geometry" />
        </mxCell>
        <mxCell id="G1LfzqULqKn8pjqGVw7g-5" value="crm_sales_details" style="swimlane;fontStyle=0;childLayout=stackLayout;horizontal=1;startSize=26;fillColor=#dae8fc;horizontalStack=0;resizeParent=1;resizeParentMax=0;resizeLast=0;collapsible=1;marginBottom=0;html=1;rounded=1;swimlaneLine=1;glass=0;shadow=0;swimlaneFillColor=default;strokeColor=#6c8ebf;" parent="1" vertex="1">
          <mxGeometry x="-60" y="230" width="140" height="104" as="geometry" />
        </mxCell>
        <mxCell id="G1LfzqULqKn8pjqGVw7g-6" value="sales_order_num" style="text;strokeColor=none;fillColor=none;align=left;verticalAlign=top;spacingLeft=4;spacingRight=4;overflow=hidden;rotatable=0;points=[[0,0.5],[1,0.5]];portConstraint=eastwest;whiteSpace=wrap;html=1;" parent="G1LfzqULqKn8pjqGVw7g-5" vertex="1">
          <mxGeometry y="26" width="140" height="26" as="geometry" />
        </mxCell>
        <mxCell id="G1LfzqULqKn8pjqGVw7g-12" value="cst_id" style="text;strokeColor=none;fillColor=none;align=left;verticalAlign=top;spacingLeft=4;spacingRight=4;overflow=hidden;rotatable=0;points=[[0,0.5],[1,0.5]];portConstraint=eastwest;whiteSpace=wrap;html=1;strokeWidth=3;" parent="G1LfzqULqKn8pjqGVw7g-5" vertex="1">
          <mxGeometry y="52" width="140" height="26" as="geometry" />
        </mxCell>
        <mxCell id="G1LfzqULqKn8pjqGVw7g-15" value="prd_key" style="text;strokeColor=none;fillColor=none;align=left;verticalAlign=top;spacingLeft=4;spacingRight=4;overflow=hidden;rotatable=0;points=[[0,0.5],[1,0.5]];portConstraint=eastwest;whiteSpace=wrap;html=1;strokeWidth=3;" parent="G1LfzqULqKn8pjqGVw7g-5" vertex="1">
          <mxGeometry y="78" width="140" height="26" as="geometry" />
        </mxCell>
        <mxCell id="G1LfzqULqKn8pjqGVw7g-7" value="crm_prd_info" style="swimlane;fontStyle=0;childLayout=stackLayout;horizontal=1;startSize=26;fillColor=#dae8fc;horizontalStack=0;resizeParent=1;resizeParentMax=0;resizeLast=0;collapsible=1;marginBottom=0;html=1;rounded=1;swimlaneLine=1;glass=0;shadow=0;swimlaneFillColor=default;strokeColor=#6c8ebf;" parent="1" vertex="1">
          <mxGeometry x="130" y="360" width="140" height="78" as="geometry" />
        </mxCell>
        <mxCell id="G1LfzqULqKn8pjqGVw7g-8" value="prd_id" style="text;strokeColor=none;fillColor=none;align=left;verticalAlign=top;spacingLeft=4;spacingRight=4;overflow=hidden;rotatable=0;points=[[0,0.5],[1,0.5]];portConstraint=eastwest;whiteSpace=wrap;html=1;" parent="G1LfzqULqKn8pjqGVw7g-7" vertex="1">
          <mxGeometry y="26" width="140" height="26" as="geometry" />
        </mxCell>
        <mxCell id="G1LfzqULqKn8pjqGVw7g-32" value="cat_id" style="text;strokeColor=none;fillColor=none;align=left;verticalAlign=top;spacingLeft=4;spacingRight=4;overflow=hidden;rotatable=0;points=[[0,0.5],[1,0.5]];portConstraint=eastwest;whiteSpace=wrap;html=1;" parent="G1LfzqULqKn8pjqGVw7g-7" vertex="1">
          <mxGeometry y="52" width="140" height="26" as="geometry" />
        </mxCell>
        <mxCell id="G1LfzqULqKn8pjqGVw7g-13" style="edgeStyle=orthogonalEdgeStyle;rounded=0;orthogonalLoop=1;jettySize=auto;html=1;entryX=0;entryY=0.5;entryDx=0;entryDy=0;" parent="1" source="G1LfzqULqKn8pjqGVw7g-12" target="G1LfzqULqKn8pjqGVw7g-2" edge="1">
          <mxGeometry relative="1" as="geometry" />
        </mxCell>
        <mxCell id="G1LfzqULqKn8pjqGVw7g-18" value="crm_cust_az12" style="swimlane;fontStyle=0;childLayout=stackLayout;horizontal=1;startSize=26;fillColor=#fff2cc;horizontalStack=0;resizeParent=1;resizeParentMax=0;resizeLast=0;collapsible=1;marginBottom=0;html=1;rounded=1;swimlaneLine=1;glass=0;shadow=0;swimlaneFillColor=default;strokeColor=#d6b656;" parent="1" vertex="1">
          <mxGeometry x="420" y="178" width="140" height="52" as="geometry" />
        </mxCell>
        <mxCell id="G1LfzqULqKn8pjqGVw7g-19" value="cid" style="text;strokeColor=none;fillColor=none;align=left;verticalAlign=top;spacingLeft=4;spacingRight=4;overflow=hidden;rotatable=0;points=[[0,0.5],[1,0.5]];portConstraint=eastwest;whiteSpace=wrap;html=1;" parent="G1LfzqULqKn8pjqGVw7g-18" vertex="1">
          <mxGeometry y="26" width="140" height="26" as="geometry" />
        </mxCell>
        <mxCell id="G1LfzqULqKn8pjqGVw7g-22" value="" style="edgeStyle=orthogonalEdgeStyle;rounded=0;orthogonalLoop=1;jettySize=auto;html=1;" parent="1" source="G1LfzqULqKn8pjqGVw7g-21" target="G1LfzqULqKn8pjqGVw7g-19" edge="1">
          <mxGeometry relative="1" as="geometry" />
        </mxCell>
        <mxCell id="G1LfzqULqKn8pjqGVw7g-27" value="erp_loc_a101" style="swimlane;fontStyle=0;childLayout=stackLayout;horizontal=1;startSize=26;fillColor=#fff2cc;horizontalStack=0;resizeParent=1;resizeParentMax=0;resizeLast=0;collapsible=1;marginBottom=0;html=1;rounded=1;swimlaneLine=1;glass=0;shadow=0;swimlaneFillColor=default;strokeColor=#d6b656;" parent="1" vertex="1">
          <mxGeometry x="420" y="286" width="140" height="52" as="geometry" />
        </mxCell>
        <mxCell id="G1LfzqULqKn8pjqGVw7g-28" value="cid" style="text;strokeColor=none;fillColor=none;align=left;verticalAlign=top;spacingLeft=4;spacingRight=4;overflow=hidden;rotatable=0;points=[[0,0.5],[1,0.5]];portConstraint=eastwest;whiteSpace=wrap;html=1;" parent="G1LfzqULqKn8pjqGVw7g-27" vertex="1">
          <mxGeometry y="26" width="140" height="26" as="geometry" />
        </mxCell>
        <mxCell id="G1LfzqULqKn8pjqGVw7g-30" value="" style="edgeStyle=orthogonalEdgeStyle;rounded=0;orthogonalLoop=1;jettySize=auto;html=1;" parent="1" source="G1LfzqULqKn8pjqGVw7g-21" target="G1LfzqULqKn8pjqGVw7g-19" edge="1">
          <mxGeometry relative="1" as="geometry" />
        </mxCell>
        <mxCell id="G1LfzqULqKn8pjqGVw7g-31" style="edgeStyle=orthogonalEdgeStyle;rounded=0;orthogonalLoop=1;jettySize=auto;html=1;entryX=0;entryY=0.5;entryDx=0;entryDy=0;" parent="1" source="G1LfzqULqKn8pjqGVw7g-21" target="G1LfzqULqKn8pjqGVw7g-28" edge="1">
          <mxGeometry relative="1" as="geometry" />
        </mxCell>
        <mxCell id="G1LfzqULqKn8pjqGVw7g-33" value="erp_px_cat_g1v2" style="swimlane;fontStyle=0;childLayout=stackLayout;horizontal=1;startSize=26;fillColor=#fff2cc;horizontalStack=0;resizeParent=1;resizeParentMax=0;resizeLast=0;collapsible=1;marginBottom=0;html=1;rounded=1;swimlaneLine=1;glass=0;shadow=0;swimlaneFillColor=default;strokeColor=#d6b656;" parent="1" vertex="1">
          <mxGeometry x="420" y="400" width="140" height="52" as="geometry" />
        </mxCell>
        <mxCell id="G1LfzqULqKn8pjqGVw7g-34" value="id" style="text;strokeColor=none;fillColor=none;align=left;verticalAlign=top;spacingLeft=4;spacingRight=4;overflow=hidden;rotatable=0;points=[[0,0.5],[1,0.5]];portConstraint=eastwest;whiteSpace=wrap;html=1;" parent="G1LfzqULqKn8pjqGVw7g-33" vertex="1">
          <mxGeometry y="26" width="140" height="26" as="geometry" />
        </mxCell>
        <mxCell id="G1LfzqULqKn8pjqGVw7g-35" style="edgeStyle=orthogonalEdgeStyle;rounded=0;orthogonalLoop=1;jettySize=auto;html=1;entryX=0;entryY=0.75;entryDx=0;entryDy=0;" parent="1" source="G1LfzqULqKn8pjqGVw7g-32" target="G1LfzqULqKn8pjqGVw7g-33" edge="1">
          <mxGeometry relative="1" as="geometry" />
        </mxCell>
        <mxCell id="G1LfzqULqKn8pjqGVw7g-37" value="sales details" style="whiteSpace=wrap;html=1;rounded=1;" parent="1" vertex="1">
          <mxGeometry x="-60" y="200" width="140" height="30" as="geometry" />
        </mxCell>
        <mxCell id="G1LfzqULqKn8pjqGVw7g-38" value="customer information" style="whiteSpace=wrap;html=1;rounded=1;" parent="1" vertex="1">
          <mxGeometry x="140" y="148" width="140" height="30" as="geometry" />
        </mxCell>
        <mxCell id="G1LfzqULqKn8pjqGVw7g-39" value="product infromation" style="whiteSpace=wrap;html=1;rounded=1;" parent="1" vertex="1">
          <mxGeometry x="130" y="330" width="140" height="30" as="geometry" />
        </mxCell>
        <mxCell id="G1LfzqULqKn8pjqGVw7g-40" value="extra customer information" style="whiteSpace=wrap;html=1;rounded=1;" parent="1" vertex="1">
          <mxGeometry x="420" y="148" width="140" height="30" as="geometry" />
        </mxCell>
        <mxCell id="G1LfzqULqKn8pjqGVw7g-41" value="location of customers" style="whiteSpace=wrap;html=1;rounded=1;" parent="1" vertex="1">
          <mxGeometry x="420" y="256" width="140" height="30" as="geometry" />
        </mxCell>
        <mxCell id="G1LfzqULqKn8pjqGVw7g-42" value="product categories" style="whiteSpace=wrap;html=1;rounded=1;" parent="1" vertex="1">
          <mxGeometry x="420" y="370" width="140" height="30" as="geometry" />
        </mxCell>
        <mxCell id="G1LfzqULqKn8pjqGVw7g-45" value="&lt;b&gt;CRM&lt;/b&gt;" style="rounded=1;whiteSpace=wrap;html=1;fillColor=#dae8fc;strokeColor=#6c8ebf;" parent="1" vertex="1">
          <mxGeometry x="45" y="70" width="120" height="40" as="geometry" />
        </mxCell>
        <mxCell id="G1LfzqULqKn8pjqGVw7g-55" value="" style="rounded=1;whiteSpace=wrap;html=1;fillColor=none;strokeColor=default;" parent="1" vertex="1">
          <mxGeometry x="340" y="90" width="280" height="390" as="geometry" />
        </mxCell>
        <mxCell id="G1LfzqULqKn8pjqGVw7g-57" value="ERP" style="rounded=1;whiteSpace=wrap;html=1;fillColor=#fff2cc;strokeColor=#d6b656;fontStyle=1" parent="1" vertex="1">
          <mxGeometry x="430" y="70" width="120" height="40" as="geometry" />
        </mxCell>
        <mxCell id="k5AQwM-Nr4oZBj4dmHwO-9" style="edgeStyle=orthogonalEdgeStyle;rounded=0;orthogonalLoop=1;jettySize=auto;html=1;entryX=0;entryY=0.5;entryDx=0;entryDy=0;" parent="1" source="G1LfzqULqKn8pjqGVw7g-15" target="G1LfzqULqKn8pjqGVw7g-32" edge="1">
          <mxGeometry relative="1" as="geometry" />
        </mxCell>
      </root>
    </mxGraphModel>
  </diagram>
</mxfile>
